# xmcd CD database file
#
# Track frame offsets:
#	150
#	18450
#	43302
#	61547
#
# Disc length: 1150 seconds
#
# Revision: 0
# Processed by: cddbd v1.5.1PL0 Copyright (c) Steve Scherf et al.
# Submitted via: CDex 1.51
#
DISCID=2b047c04
DTITLE=橘朔也(天野浩成) - rebirth
DYEAR=2004
DGENRE=JPop
TTITLE0=rebirth
TTITLE1=someday somewhere
TTITLE2=rebirth（オリジナル・カラオケ）
TTITLE3=someday somewhere（オリジナル・カラオケ）
EXTD=YEAR: 2004
EXTT0=
EXTT1=
EXTT2=
EXTT3=
PLAYORDER=
